{"title":"The.Last.Survivors.2014.BRRip.x264-MenaceIISociety","uid":12133368,"size":875943984,"categoryP":"video","categoryS":"movies","magnet":"?xt=urn:btih:ca824bc97db3ffc65444c4cd4caf0b0938b7d0d6&amp;dn=The.Last.Survivors.2014.BRRip.x264-MenaceIISociety&amp;tr=udp%3A%2F%2Ftracker.openbittorrent.com%3A80&amp;tr=udp%3A%2F%2Fopen.demonii.com%3A1337&amp;tr=udp%3A%2F%2Ftracker.coppersurfer.tk%3A6969&amp;tr=udp%3A%2F%2Fexodus.desync.com%3A6969","seeders":4,"leechers":3,"uploader":"xxxlavalxxx","files":4,"time":1437112905,"description":" &lt;a href=&quot;http://extraimago.com/image/NjB&quot; rel=&quot;nofollow&quot; target=&quot;_NEW&quot;&gt;http://extraimago.com/image/NjB&lt;/a&gt;\n &lt;a href=&quot;\nhttp://www.imdb.com/title/tt2558318/&quot; rel=&quot;nofollow&quot; target=&quot;_NEW&quot;&gt;\nhttp://www.imdb.com/title/tt2558318/&lt;/a&gt;\n\n\nA teenage girl fights to protect the last working well in a drought-stricken valley from a greedy water baron.\n\nDirector: Thomas S. Hammock\nWriters: Jacob Forman, Thomas S. Hammock\nStars: Haley Lu Richardson, Booboo Stewart, Max Charles \nGenres: Action | Horror | Thriller\nCountry: USA\nLanguage: English\n\n\nSource: DL.1080p.BluRay.x264-ENCOUNTERS [THANKS]\n\nNOTE: Only see WEBDL's of this, heres a nice rip from the bluray \n\nGeneral\nComplete name: The.Last.Survivors.2014.BRRip.x264-MenaceIISociety.mp4\nFormat: MPEG-4\nFormat profile: Base Media\nCodec ID: isom\nFile size: 825 MiB\nDuration: 1h 34mn\nOverall bit rate mode: Variable\nOverall bit rate: 1 216 Kbps\nEncoded date: UTC 2015-07-16 20:00:14\nTagged date: UTC 2015-07-16 20:00:14\n\nVideo\nID: 1\nFormat: AVC\nFormat/Info: Advanced Video Codec\nFormat profile: &lt;a class=&quot;__cf_email__&quot; href=&quot;/cdn-cgi/l/email-protection&quot; data-cfemail=&quot;0f476668674f433b213e&quot;&gt;[email&amp;#160;protected]&lt;/a&gt;&lt;script data-cfhash='f9e31' type=&quot;text/javascript&quot;&gt;\n/* &lt;![CDATA[ */!function(){try{var t=&quot;currentScript&quot;in document?document.currentScript:function(){for(var t=document.getElementsByTagName(&quot;script&quot;),e=t.length;e--;)if(t[e].getAttribute(&quot;data-cfhash&quot;))return t[e]}();if(t&amp;&amp;t.previousSibling){var e,r,n,i,c=t.previousSibling,a=c.getAttribute(&quot;data-cfemail&quot;);if(a){for(e=&quot;&quot;,r=parseInt(a.substr(0,2),16),n=2;a.length-n;n+=2)i=parseInt(a.substr(n,2),16)^r,e+=String.fromCharCode(i);e=document.createTextNode(e),c.parentNode.replaceChild(e,c)}t.parentNode.removeChild(t);}}catch(u){}}()/* ]]&gt; */&lt;/script&gt;\nFormat settings, CABAC: Yes\nFormat settings, ReFrames: 3 frames\nCodec ID: avc1\nCodec ID/Info: Advanced Video Coding\nDuration: 1h 34mn\nBit rate mode: Variable\nBit rate: 865 Kbps\nMaximum bit rate: 40.0 Mbps\nWidth: 720 pixels\nHeight: 304 pixels\nDisplay aspect ratio: 2.35:1\nFrame rate mode: Constant\nFrame rate: 23.976 fps\nColor space: YUV\nChroma subsampling: 4:2:0\nBit depth: 8 bits\nScan type: Progressive\nBits/(Pixel*Frame): 0.165\nStream size: 587 MiB (71%)\nWriting library: x264 core 146 r2538 121396c\n\nAudio\nID: 2\nFormat: AAC\nFormat/Info: Advanced Audio Codec\nFormat profile: LC\nCodec ID: 40\nDuration: 1h 34mn\nBit rate mode: Variable\nBit rate: 353 Kbps\nMaximum bit rate: 388 Kbps\nChannel(s): 6 channels\nChannel positions: Front: L C R, Side: L R, LFE\nSampling rate: 48.0 KHz\nCompression mode: Lossy\nStream size: 235 MiB (29%)\nLanguage: English\nEncoded date: UTC 2015-07-16 19:45:55\n\n &lt;a href=&quot;\nhttp://extraimago.com/image/1CM&quot; rel=&quot;nofollow&quot; target=&quot;_NEW&quot;&gt;\nhttp://extraimago.com/image/1CM&lt;/a&gt; &lt;a href=&quot;\nhttp://extraimago.com/image/1CU&quot; rel=&quot;nofollow&quot; target=&quot;_NEW&quot;&gt;\nhttp://extraimago.com/image/1CU&lt;/a&gt; &lt;a href=&quot;\nhttp://extraimago.com/image/1Cz&quot; rel=&quot;nofollow&quot; target=&quot;_NEW&quot;&gt;\nhttp://extraimago.com/image/1Cz&lt;/a&gt; &lt;a href=&quot;\nhttp://extraimago.com/image/1C0&quot; rel=&quot;nofollow&quot; target=&quot;_NEW&quot;&gt;\nhttp://extraimago.com/image/1C0&lt;/a&gt;","torrent":{"xt":"urn:btih:ca824bc97db3ffc65444c4cd4caf0b0938b7d0d6","amp;dn":"The.Last.Survivors.2014.BRRip.x264-MenaceIISociety","amp;tr":["udp%3A%2F%2Ftracker.openbittorrent.com%3A80","udp%3A%2F%2Fopen.demonii.com%3A1337","udp%3A%2F%2Ftracker.coppersurfer.tk%3A6969","udp%3A%2F%2Fexodus.desync.com%3A6969"],"infoHash":"ca824bc97db3ffc65444c4cd4caf0b0938b7d0d6","infoHashBuffer":{"type":"Buffer","data":[202,130,75,201,125,179,255,198,84,68,196,205,76,175,11,9,56,183,208,214]},"announce":[],"urlList":[]}}